<svg width="512" height="512" viewBox="0 0 512 512" fill="none" xmlns="http://www.w3.org/2000/svg">
<rect width="512" height="512" rx="40" fill="white"/>
<path d="M250.154 76.3433C253.241 73.2562 258.222 73.2212 261.354 76.2349C261.458 76.3278 261.558 76.4247 261.657 76.5239L374.465 189.35C375.342 190.227 375.971 191.258 376.355 192.355C376.769 193.321 377 194.384 377 195.501V421.501L376.989 421.913C376.775 426.139 373.28 429.501 369 429.501H143C138.582 429.501 135 425.919 135 421.501V195.501C135 194.184 135.318 192.942 135.881 191.847C136.258 190.685 136.907 189.59 137.831 188.667L250.154 76.3433ZM162.633 413.501H349.998L256.315 319.818L162.633 413.501ZM151 402.506L245.002 308.504L151 214.502V402.506ZM267.63 308.503L361 401.874V215.133L267.63 308.503ZM256.316 297.19L350.006 203.501H162.627L256.316 297.19ZM161.625 187.501H349.989L255.814 93.3091L161.625 187.501Z" fill="#1E1E1E"/>
</svg>
