<svg width="512" height="512" viewBox="0 0 512 512" fill="none" xmlns="http://www.w3.org/2000/svg">
<rect width="512" height="512" rx="112" fill="white"/>
<path d="M250.154 76.3438C253.243 73.2553 258.227 73.2214 261.358 76.2393C261.46 76.3309 261.559 76.4257 261.657 76.5234L374.465 189.351C375.343 190.229 375.974 191.261 376.358 192.36C376.77 193.324 377 194.385 377 195.5V421.5L376.989 421.912C376.775 426.139 373.28 429.5 369 429.5H143C138.582 429.5 135 425.918 135 421.5V195.5C135 194.185 135.318 192.944 135.88 191.85C136.257 190.686 136.907 189.591 137.831 188.667L250.154 76.3438ZM162.633 413.5H349.998L256.315 319.817L162.633 413.5ZM151 402.506L245.002 308.504L151 214.502V402.506ZM267.629 308.503L361 401.874V215.133L267.629 308.503ZM256.315 297.189L350.006 203.5H162.626L256.315 297.189ZM161.625 187.5H349.989L255.815 93.3086L161.625 187.5Z" fill="#1E1E1E"/>
</svg>
