<svg width="150" height="150" viewBox="0 0 150 150" fill="none" xmlns="http://www.w3.org/2000/svg">
<rect width="150" height="150" rx="40" fill="white"/>
<path d="M73.2871 22.3666C74.2024 21.4513 75.6863 21.4514 76.6016 22.3666C76.6056 22.3706 76.6083 22.3762 76.6123 22.3803C76.6266 22.3939 76.6432 22.4053 76.6572 22.4193L109.706 55.474C109.958 55.7256 110.137 56.0214 110.25 56.3353C110.377 56.6234 110.449 56.9409 110.449 57.2758V123.487L110.446 123.607C110.383 124.845 109.359 125.83 108.105 125.83H41.8945C40.6002 125.83 39.5509 124.781 39.5508 123.487V57.2758C39.5508 56.8881 39.6458 56.5227 39.8125 56.2006C39.9233 55.8621 40.1108 55.5429 40.3799 55.2738L73.2871 22.3666ZM47.6465 121.143H102.539L75.0928 93.6967L47.6465 121.143ZM44.2383 117.922L71.7783 90.3822L44.2383 62.8422V117.922ZM78.4072 90.3822L105.762 117.737V63.0277L78.4072 90.3822ZM75.0928 87.0678L102.541 59.6195H47.6445L75.0928 87.0678ZM47.3506 54.932H102.536L74.9453 27.3373L47.3506 54.932Z" fill="#1E1E1E"/>
</svg>
